# xmcd CD database file
#
# Track frame offsets:
#	150
#	8521
#	28320
#	42834
#	57633
#	73384
#	92730
#	117084
#	140556
#	160570
#
# Disc length: 2220 seconds
#
# Revision: 0
# Processed by: cddbd v1.5.2PL0 Copyright (c) Steve Scherf et al.
# Submitted via: CDex 1.51
#
DISCID=8608aa0a
DTITLE=Live Maria - Circuit Songs
DYEAR=2007
DGENRE=Jazz
TTITLE0=Circuit
TTITLE1=Eyewitness
TTITLE2=Can U Take This
TTITLE3=Struggle I
TTITLE4=Deeper
TTITLE5=Will You Love
TTITLE6=China
TTITLE7=The Climb
TTITLE8=Fall
TTITLE9=Struglle II
EXTD=YEAR: 2007
EXTT0=
EXTT1=
EXTT2=
EXTT3=
EXTT4=
EXTT5=
EXTT6=
EXTT7=
EXTT8=
EXTT9=
PLAYORDER=
